<?xml version="1.0" encoding="iso-8859-1"?>
<svg version="1.1" xmlns="http://www.w3.org/2000/svg" xmlns:xlink="http://www.w3.org/1999/xlink" x="0px" y="0px" viewBox="0 0 500 500" style="enable-background:new 0 0 500 500;" xml:space="preserve">
    <path d="M255.998,0c-88.235,0-160,71.765-160,160c0,85.12,145.344,275.755,151.531,283.819c2.027,2.645,5.141,4.181,8.469,4.181 s6.443-1.536,8.469-4.181C270.654,435.755,415.998,245.12,415.998,160C415.998,71.765,344.233,0,255.998,0z M255.998,234.667 c-41.173,0-74.667-33.493-74.667-74.667s33.493-74.667,74.667-74.667s74.667,33.493,74.667,74.667 S297.171,234.667,255.998,234.667z" fill="#a5c85a"/>
    <path d="M499.539,495.424l-85.333-128c-1.984-2.965-5.312-4.757-8.875-4.757h-57.707c-30.912,47.552-59.52,85.397-66.219,94.123 c-5.995,7.829-15.509,12.544-25.408,12.544c-9.899,0-19.413-4.715-25.429-12.565c-6.677-8.725-35.307-46.571-66.197-94.101 h-57.707c-3.563,0-6.891,1.792-8.875,4.757l-85.333,128c-2.176,3.264-2.389,7.488-0.533,10.965 c1.856,3.435,5.461,5.611,9.408,5.611h469.333c3.947,0,7.552-2.176,9.387-5.632C501.929,502.891,501.737,498.688,499.539,495.424z" fill="#a5c85a"/>
</svg>
